<?xml version="1.0" encoding="UTF-8"?>
<svg xmlns="http://www.w3.org/2000/svg" xmlns:xlink="http://www.w3.org/1999/xlink" width="80px" height="80px" viewBox="0 0 80 80" version="1.1">
<g id="surface1">
<path style=" stroke:none;fill-rule:nonzero;fill:rgb(0%,0%,0%);fill-opacity:1;" d="M 71.980469 20.3125 C 71.445312 19.191406 70.101562 18.714844 68.980469 19.253906 L 64.214844 21.53125 C 64.691406 23.554688 64.164062 25.609375 62.929688 27.132812 L 70.921875 23.3125 C 72.042969 22.777344 72.515625 21.433594 71.980469 20.3125 Z M 71.980469 20.3125 "/>
<path style=" stroke:none;fill-rule:nonzero;fill:rgb(0%,0%,0%);fill-opacity:1;" d="M 63.585938 72.515625 C 67.246094 71.574219 69.953125 68.253906 69.953125 64.300781 C 69.953125 60.730469 67.742188 57.679688 64.617188 56.429688 L 58.886719 29.535156 L 54.566406 30.863281 L 59.84375 55.605469 L 45.460938 53.695312 L 42.199219 63.449219 C 40.957031 67.164062 36.945312 69.128906 33.273438 67.902344 C 32.097656 67.507812 31.097656 66.835938 30.316406 65.980469 C 29.539062 69.863281 26.109375 72.789062 21.996094 72.789062 C 17.3125 72.789062 13.511719 68.988281 13.511719 64.300781 C 13.511719 59.613281 17.3125 55.816406 21.996094 55.816406 C 24.605469 55.816406 26.933594 56.992188 28.492188 58.839844 L 30.652344 51.726562 L 27.390625 43.855469 L 30.382812 43.8125 L 24.164062 39.097656 L 37 44.402344 L 31.792969 59.96875 C 31.109375 62.023438 32.214844 64.242188 34.265625 64.929688 C 36.320312 65.613281 38.539062 64.503906 39.226562 62.453125 L 45.582031 43.445312 C 46.234375 41.503906 45.277344 39.390625 43.390625 38.59375 L 36.082031 35.507812 C 37.902344 32.894531 37.890625 32.914062 39.894531 30.03125 L 33.773438 21.570312 L 43.324219 29.382812 C 44.160156 30.066406 45.292969 30.304688 46.351562 29.976562 L 58.820312 26.140625 C 60.542969 25.609375 61.511719 23.78125 60.980469 22.058594 C 60.449219 20.335938 58.621094 19.367188 56.898438 19.898438 L 46.101562 23.222656 L 37.90625 16.515625 L 45.25 19.859375 C 45.039062 18.660156 44.386719 17.539062 43.328125 16.765625 L 36.480469 11.757812 C 34.214844 10.101562 31.019531 10.699219 29.503906 13.0625 L 18.515625 30.222656 C 16.769531 32.949219 17.949219 36.570312 20.914062 37.777344 L 22.417969 38.386719 L 17.714844 38.382812 C 16.203125 38.382812 14.976562 39.605469 14.976562 41.117188 C 14.976562 42.628906 16.203125 43.855469 17.714844 43.855469 L 22.519531 43.855469 L 25.269531 50.484375 C 24.21875 50.238281 23.125 50.101562 21.996094 50.101562 C 14.15625 50.101562 7.796875 56.460938 7.796875 64.300781 C 7.796875 68.457031 9.582031 72.191406 12.425781 74.789062 L 10.289062 76.925781 C 9.585938 77.628906 9.585938 78.769531 10.289062 79.472656 C 10.992188 80.175781 12.128906 80.175781 12.832031 79.472656 L 15.421875 76.886719 C 17.386719 77.914062 19.625 78.5 21.996094 78.5 C 29.210938 78.5 59.105469 73.09375 59.105469 73.09375 L 65.378906 79.464844 C 66.078125 80.171875 67.214844 80.179688 67.925781 79.480469 C 68.632812 78.785156 68.640625 77.644531 67.941406 76.9375 Z M 63.585938 72.515625 "/>
<path style=" stroke:none;fill-rule:nonzero;fill:rgb(0%,0%,0%);fill-opacity:1;" d="M 54.011719 7.207031 C 54.011719 11.1875 50.785156 14.414062 46.804688 14.414062 C 42.824219 14.414062 39.597656 11.1875 39.597656 7.207031 C 39.597656 3.226562 42.824219 0 46.804688 0 C 50.785156 0 54.011719 3.226562 54.011719 7.207031 Z M 54.011719 7.207031 "/>
</g>
</svg>
